<?xml version="1.0" encoding="UTF-8" standalone="no"?>
<svg
   xmlns:dc="http://purl.org/dc/elements/1.1/"
   xmlns:cc="http://creativecommons.org/ns#"
   xmlns:rdf="http://www.w3.org/1999/02/22-rdf-syntax-ns#"
   xmlns:svg="http://www.w3.org/2000/svg"
   xmlns="http://www.w3.org/2000/svg"
   viewBox="0 0 371.21732 353.45599"
   height="353.45599"
   width="371.21732"
   xml:space="preserve"
   id="svg2"
   version="1.1"><metadata
     id="metadata8"><rdf:RDF><cc:Work
         rdf:about=""><dc:format>image/svg+xml</dc:format><dc:type
           rdf:resource="http://purl.org/dc/dcmitype/StillImage" /></cc:Work></rdf:RDF></metadata><defs
     id="defs6"><clipPath
       id="clipPath20"
       clipPathUnits="userSpaceOnUse"><path
         id="path18"
         d="M 0,0 H 278.413 V 265.092 H 0 Z" /></clipPath></defs><g
     transform="matrix(1.3333333,0,0,-1.3333333,0,353.456)"
     id="g10"><path
       id="path12"
       style="fill:#231f20;fill-opacity:1;fill-rule:nonzero;stroke:none"
       d="m 98.558,91.898 h 81.298 v 81.296 H 98.558 Z m 92.008,-10.71 H 87.847 v 102.717 h 102.719 z" /><g
       id="g14"><g
         clip-path="url(#clipPath20)"
         id="g16"><g
           transform="translate(142.8286,117.1953)"
           id="g22"><path
             id="path24"
             style="fill:#231f20;fill-opacity:1;fill-rule:nonzero;stroke:none"
             d="m 0,0 c 2.426,0 4.33,0.441 5.711,1.321 1.38,0.88 2.072,2.25 2.072,4.105 V 5.57 c 0,1.665 -0.643,2.986 -1.929,3.963 -1.285,0.976 -3.355,1.463 -6.212,1.463 h -12.71 l 0,-10.996 z m -2.928,20.137 c 2.427,0 4.356,0.415 5.783,1.249 1.429,0.831 2.143,2.177 2.143,4.034 v 0.142 c 0,1.665 -0.62,2.938 -1.857,3.82 -1.239,0.881 -3.023,1.321 -5.354,1.321 H -13.068 V 20.137 Z m -20.851,20.206 h 23.166 c 5.748,0 10.097,-1.476 13.043,-4.427 2.28,-2.286 3.421,-5.119 3.421,-8.498 v -0.143 c 0,-1.428 -0.178,-2.689 -0.533,-3.784 -0.355,-1.095 -0.827,-2.082 -1.418,-2.962 -0.592,-0.882 -1.277,-1.655 -2.058,-2.322 -0.781,-0.666 -1.62,-1.237 -2.518,-1.713 2.889,-1.096 5.164,-2.582 6.823,-4.463 1.658,-1.88 2.49,-4.488 2.49,-7.819 V 4.07 c 0,-2.284 -0.442,-4.283 -1.321,-5.997 C 16.438,-3.64 15.178,-5.07 13.538,-6.21 11.897,-7.355 9.927,-8.212 7.622,-8.783 5.317,-9.354 2.763,-9.64 -0.042,-9.64 h -23.737 z" /></g></g></g></g></svg>